<?xml version="1.0" encoding="UTF-8" standalone="no"?><!-- Generator: Gravit.io --><svg xmlns="http://www.w3.org/2000/svg" xmlns:xlink="http://www.w3.org/1999/xlink" style="isolation:isolate" viewBox="0 0 192 192" width="192pt" height="192pt"><path d="M 32 0 L 160 0 C 177.661 0 192 14.339 192 32 L 192 160 C 192 177.661 177.661 192 160 192 L 32 192 C 14.339 192 0 177.661 0 160 L 0 32 C 0 14.339 14.339 0 32 0 Z" style="stroke:none;fill:#023047;stroke-miterlimit:10;"/><path d=" M 147.297 66.747 L 147.297 66.747 L 70.352 143.693 L 78.901 152.242 L 164.396 66.747 L 164.396 66.747 L 164.396 66.747 L 163.142 65.494 L 155.846 58.198 L 155.846 58.198 L 121.648 24 L 113.099 32.549 L 147.297 66.747 Z  M 44.703 125.253 L 121.648 48.307 L 113.099 39.758 L 27.604 125.253 L 36.154 133.802 L 70.352 168 L 78.901 159.451 L 44.703 125.253 L 44.703 125.253 Z " fill-rule="evenodd" fill="rgb(33,158,188)"/></svg>