<?xml version="1.0" encoding="UTF-8" standalone="no"?><!-- Generator: Gravit.io --><svg xmlns="http://www.w3.org/2000/svg" xmlns:xlink="http://www.w3.org/1999/xlink" style="isolation:isolate" viewBox="0 0 512 512" width="512pt" height="512pt"><path d="M 85.333 0 L 426.667 0 C 473.763 0 512 38.237 512 85.333 L 512 426.667 C 512 473.763 473.763 512 426.667 512 L 85.333 512 C 38.237 512 0 473.763 0 426.667 L 0 85.333 C 0 38.237 38.237 0 85.333 0 Z" style="stroke:none;fill:#023047;stroke-miterlimit:10;"/><path d=" M 392.792 177.993 L 392.792 177.993 L 187.604 383.18 L 210.403 405.979 L 438.389 177.993 L 438.389 177.993 L 438.389 177.993 L 435.045 174.65 L 415.59 155.194 L 415.59 155.194 L 324.396 64 L 301.597 86.799 L 392.792 177.993 Z  M 119.208 334.007 L 324.396 128.82 L 301.597 106.021 L 73.611 334.007 L 96.41 356.806 L 187.604 448 L 210.403 425.201 L 119.208 334.007 L 119.208 334.007 Z " fill-rule="evenodd" fill="rgb(33,158,188)"/></svg>