<?xml version="1.0" encoding="UTF-8" standalone="no"?><!-- Generator: Gravit.io --><svg xmlns="http://www.w3.org/2000/svg" xmlns:xlink="http://www.w3.org/1999/xlink" style="isolation:isolate" viewBox="0 0 544 64" width="544pt" height="64pt"><path d=" M 112.928 44.894 L 107.566 44.894 C 103.928 49.745 100.545 51.66 95.63 51.66 C 87.779 51.66 81.587 45.468 81.587 37.745 C 81.587 29.894 87.651 23.766 95.438 23.766 C 100.609 23.766 104.885 26.255 107.566 30.851 L 112.864 30.851 C 110.055 23.83 103.353 19.426 95.502 19.426 C 85.034 19.426 76.8 27.468 76.8 37.617 C 76.8 48.021 85.098 56 95.821 56 C 103.034 56 108.715 52.872 112.928 44.894 Z  M 154.545 37.809 C 154.545 27.149 146.885 19.426 136.417 19.426 C 126.077 19.426 118.098 27.277 118.098 37.489 C 118.098 48.213 125.949 56 136.8 56 C 147.013 56 154.545 48.277 154.545 37.809 Z  M 149.757 37.872 C 149.757 45.851 144.268 51.66 136.672 51.66 C 128.63 51.66 122.885 45.787 122.885 37.617 C 122.885 29.702 128.694 23.766 136.417 23.766 C 144.077 23.766 149.757 29.766 149.757 37.872 Z  M 192.843 24.532 L 192.843 20.255 L 184.162 20.255 C 184.098 14.447 186.396 12.277 192.843 12.277 L 192.843 8 C 183.843 8 179.311 12.149 179.438 20.255 L 168.396 20.255 C 168.332 14.447 170.63 12.277 177.077 12.277 L 177.077 8 C 168.077 8 163.545 12.149 163.672 20.255 L 158.247 20.255 L 158.247 24.532 L 163.672 24.532 L 163.672 55.17 L 168.396 55.17 L 168.396 24.532 L 179.438 24.532 L 179.438 55.17 L 184.162 55.17 L 184.162 24.532 L 192.843 24.532 Z  M 232.864 39.277 C 232.864 26.894 225.013 19.426 214.672 19.426 C 204.523 19.426 196.545 27.404 196.545 37.553 C 196.545 47.894 204.651 56 214.991 56 C 222.906 56 229.736 50.319 231.97 43.681 L 227.055 43.681 C 225.077 48.468 220.162 51.66 214.864 51.66 C 207.715 51.66 201.651 46.17 201.268 39.277 L 232.864 39.277 Z  M 228.14 35 L 201.396 35 C 202.672 28.298 207.97 23.766 214.609 23.766 C 221.374 23.766 226.545 28.043 228.14 35 Z  M 274.353 39.277 C 274.353 26.894 266.502 19.426 256.162 19.426 C 246.013 19.426 238.034 27.404 238.034 37.553 C 238.034 47.894 246.14 56 256.481 56 C 264.396 56 271.226 50.319 273.46 43.681 L 268.545 43.681 C 266.566 48.468 261.651 51.66 256.353 51.66 C 249.204 51.66 243.14 46.17 242.757 39.277 L 274.353 39.277 Z  M 269.63 35 L 242.885 35 C 244.162 28.298 249.46 23.766 256.098 23.766 C 262.864 23.766 268.034 28.043 269.63 35 Z  M 328.162 20.255 L 323.566 20.255 L 312.204 49.489 L 303.97 24.532 L 300.077 24.532 L 291.843 49.489 L 280.736 20.255 L 276.013 20.255 L 289.353 55.17 L 294.46 55.17 L 301.991 32 L 309.587 55.17 L 314.63 55.17 L 328.162 20.255 Z  M 337.353 55.17 L 337.353 20.255 L 332.63 20.255 L 332.63 55.17 L 337.353 55.17 Z  M 337.353 16.426 L 337.353 8.383 L 332.63 8.383 L 332.63 16.426 L 337.353 16.426 Z  M 362.247 24.532 L 362.247 20.255 L 354.396 20.255 L 354.396 8 L 349.672 8 L 349.672 20.255 L 342.14 20.255 L 342.14 24.532 L 349.672 24.532 L 349.672 55.17 L 354.396 55.17 L 354.396 24.532 L 362.247 24.532 Z  M 397.928 55.17 L 397.928 36.404 C 397.928 24.723 391.928 19.426 382.864 19.426 C 378.077 19.426 374.119 21.34 371.757 24.787 L 371.757 8 L 367.034 8 L 367.034 55.17 L 371.757 55.17 L 371.757 36.021 C 371.757 27.468 376.353 23.766 382.417 23.766 C 388.8 23.766 393.204 27.723 393.204 36.404 L 393.204 55.17 L 397.928 55.17 Z  M 441.651 55.17 L 441.651 8 L 436.928 8 L 436.928 25.809 C 433.481 21.66 428.694 19.426 423.204 19.426 C 412.672 19.426 404.63 27.34 404.63 37.745 C 404.63 48.085 412.864 56 423.651 56 C 429.46 56 433.417 53.894 436.928 48.851 L 436.928 55.17 L 441.651 55.17 Z  M 437.119 37.617 C 437.119 45.277 430.991 51.66 423.523 51.66 C 415.545 51.66 409.417 45.532 409.417 37.553 C 409.417 29.894 415.481 23.766 423.077 23.766 C 430.8 23.766 437.119 29.957 437.119 37.617 Z  M 484.672 39.277 C 484.672 26.894 476.821 19.426 466.481 19.426 C 456.332 19.426 448.353 27.404 448.353 37.553 C 448.353 47.894 456.46 56 466.8 56 C 474.715 56 481.545 50.319 483.779 43.681 L 478.864 43.681 C 476.885 48.468 471.97 51.66 466.672 51.66 C 459.523 51.66 453.46 46.17 453.077 39.277 L 484.672 39.277 Z  M 479.949 35 L 453.204 35 C 454.481 28.298 459.779 23.766 466.417 23.766 C 473.183 23.766 478.353 28.043 479.949 35 Z  M 520.417 20.255 L 515.63 20.255 L 503.119 49.617 L 490.864 20.255 L 486.077 20.255 L 500.757 55.17 L 505.736 55.17 L 520.417 20.255 Z  M 543.97 45.149 C 543.97 40.872 541.991 37.936 537.906 36.213 C 532.609 34.043 532.353 33.915 531.332 33.404 C 529.162 32.319 528.14 30.851 528.14 28.809 C 528.14 26 530.374 23.766 533.183 23.766 C 536.247 23.766 538.289 25.553 538.289 28.872 L 543.077 28.872 C 543.077 23.255 538.864 19.426 533.247 19.426 C 527.566 19.426 523.353 23.574 523.353 29.255 C 523.353 31.745 524.247 33.915 525.97 35.511 C 527.374 36.851 527.502 36.915 532.417 38.894 C 537.46 40.936 539.183 42.085 539.183 45.596 C 539.183 49.106 536.694 51.66 533.311 51.66 C 529.417 51.66 526.736 49.17 526.736 44.894 L 522.077 44.894 C 522.077 51.66 526.609 56 533.311 56 C 539.566 56 543.97 51.532 543.97 45.149 Z " fill="rgb(2,48,71)"/><path d=" M 53.197 18.999 L 53.197 18.999 L 18.999 53.197 L 22.799 56.996 L 60.796 18.999 L 60.796 18.999 L 60.796 18.999 L 60.239 18.442 L 56.996 15.199 L 56.996 15.199 L 41.797 0 L 37.998 3.8 L 53.197 18.999 Z  M 7.6 45.001 L 41.797 10.803 L 37.998 7.004 L 0 45.001 L 3.8 48.801 L 18.999 64 L 22.799 60.2 L 7.6 45.001 L 7.6 45.001 Z " fill-rule="evenodd" fill="rgb(33,158,188)"/></svg>